<svg id="Capa_1" enable-background="new 0 0 497 497" height="512" viewBox="0 0 497 497" width="512" xmlns="http://www.w3.org/2000/svg"><g><path d="m407 79.5h-30v45h60v-15c0-16.569-13.431-30-30-30z" fill="#ffde9a"/><path d="m377 79.5h-98.5c-16.569 0-30 13.431-30 30v15h158.5v-15c0-16.569-13.431-30-30-30z" fill="#fec"/><path d="m497 139.5c0-16.57-13.43-30-30-30h-30v225l30 30.5h22.5c4.142 0 7.5-3.358 7.5-7.5v-75.5l-25-71.25z" fill="#70c1b8"/><path d="m452 139.5h45v142.5h-45z" fill="#34538a"/><path d="m437 109.5h-407c-16.57 0-30 13.43-30 30v195.5l165 30h302v-225.5c0-16.57-13.43-30-30-30z" fill="#86d9d0"/><path d="m112.5 365h-105c-4.142 0-7.5-3.358-7.5-7.5v-22.5h112.5z" fill="#d6dde8"/><circle cx="384.5" cy="365" fill="#34538a" r="52.5"/><circle cx="384.5" cy="365" fill="#fff" r="22.5"/><circle cx="112.5" cy="365" fill="#34538a" r="52.5"/><circle cx="112.5" cy="365" fill="#fff" r="22.5"/><path d="m407 139.5-60 71.25 60 71.25h30v-142.5z" fill="#34538a"/><path d="m407 139.5h-377v105h256.452c10.197 0 20.225 2.599 29.139 7.551l40.318 22.399c8.913 4.952 18.942 7.551 29.139 7.551h21.952z" fill="#496ba6"/></g></svg>