<svg height="512" viewBox="0 0 512 512" width="512" xmlns="http://www.w3.org/2000/svg"><g><g fill="#57a4ff"><path d="m16 304 32 8v80l-32 8z"/><path d="m377.28 216c-35.19 82.56-121.28 192-121.28 192s-86.09-109.44-121.28-192z"/><path d="m48 312v80l-32 8v-96z"/><path d="m256 24a136 136 0 0 0 -136 136c0 15.35 5.68 34.79 14.72 56 35.19 82.56 121.28 192 121.28 192s86.09-109.44 121.28-192c9.04-21.21 14.72-40.65 14.72-56a136 136 0 0 0 -136-136zm0 80a40 40 0 1 1 -40 40 40 40 0 0 1 40-40z"/></g><g fill="#004fac"><path d="m476 208h-86.94c6.81-17.93 10.94-34.4 10.94-48 0-79.4-64.6-144-144-144s-144 64.6-144 144c0 13.6 4.13 30.07 10.94 48h-86.94a28.031 28.031 0 0 0 -28 28v232a28.031 28.031 0 0 0 28 28h440a28.031 28.031 0 0 0 28-28v-232a28.031 28.031 0 0 0 -28-28zm-220-176a128.144 128.144 0 0 1 128 128c0 13.25-4.77 31.03-14.06 52.82-.02.04-.04.09-.06.13-11.15 26.13-28.78 58.01-52.53 94.77-24.86 38.47-49.98 72.23-61.35 87.17-11.37-14.94-36.49-48.7-61.35-87.17-23.75-36.76-41.38-68.64-52.53-94.77-.02-.04-.04-.09-.06-.13-9.29-21.79-14.06-39.57-14.06-52.82a128.144 128.144 0 0 1 128-128zm-232 282.25 16 4v67.5l-16 4zm464 153.75a12.01 12.01 0 0 1 -12 12h-440a12.01 12.01 0 0 1 -12-12v-61.75l25.94-6.49a8 8 0 0 0 6.06-7.76v-80a8 8 0 0 0 -6.06-7.76l-25.94-6.49v-61.75a12.01 12.01 0 0 1 12-12h93.55c29.21 65.96 86.9 145.17 110.22 176h-127.77a8 8 0 0 0 0 16h288a8 8 0 0 0 0-16h-127.77c23.32-30.83 81.01-110.04 110.22-176h93.55a12.01 12.01 0 0 1 12 12z"/><path d="m472 320a8 8 0 0 0 -8 8v48a8 8 0 0 0 16 0v-48a8 8 0 0 0 -8-8z"/><path d="m256 192a48 48 0 1 0 -48-48 48.054 48.054 0 0 0 48 48zm0-80a32 32 0 1 1 -32 32 32.036 32.036 0 0 1 32-32z"/><path d="m432 400h-8a8 8 0 0 0 0 16h8a8 8 0 0 0 0-16z"/></g></g></svg>